<svg xmlns="http://www.w3.org/2000/svg" width="500" height="500" style="shape-rendering:geometricPrecision;text-rendering:geometricPrecision;image-rendering:optimizeQuality;fill-rule:evenodd;clip-rule:evenodd"><path fill="#fefffe" d="M490.5 2.5q2 1 0 0M481.5 6.5q2 1 0 0M170.5 8.5q2 1 0 0M210.5 9.5q2 1 0 0M81.5 15.5q2 1 0 0M434.5 18.5q2 1 0 0M56.5 36.5q2 1 0 0M246.5 45.5q2 1 0 0M377.5 45.5q2 1 0 0M94.5 49.5q2 1 0 0M90.5 50.5q2 1 0 0M365.5 52.5q2 1 0 0M223.5 58.5q2 1 0 0M54.5 60.5q2 1 0 0M233.5 62.5q2 1 0 0M73.5 67.5q2 1 0 0M358.5 75.5q2 1 0 0M410.5 77.5q2 1 0 0M84.5 81.5q2 1 0 0M149.5 81.5q2 1 0 0M74.5 87.5q2 1 0 0M349.5 91.5q2 1 0 0" style="opacity:.004"/><path fill="#ac5369" d="M346.5 168.5q0-1-1-1a524 524 0 0 0-1-45.5q-43.997-.75-88-.5v36a114 114 0 0 0 15-1q-1.757 1.267-4 2-6.462 1.725-13 0a376 376 0 0 1 1-38.5q45.508-1.25 91 .5 1.987 24.192 0 48" style="opacity:.936"/><path fill="#fefffe" d="M109.5 121.5q2 1 0 0" style="opacity:.004"/><path fill="#a30e40" d="M345.5 167.5q.46 4.328-1 8v-21a116.8 116.8 0 0 0-24.5-4q-10.192.589-17 4l-1.5 1q1.668 1.147 2 3-4.702-2.285-10-2 4.422-11.322 14-19l-1-1a28.3 28.3 0 0 1-10 3 4.93 4.93 0 0 0-.5-3 32 32 0 0 0-4.5 5 14.7 14.7 0 0 1-1.5-5q-2.313 4.679-6 8-4.125-1.627-5-6-1.486 1.394-1.5 3.5a48 48 0 0 1 1 5.5q-3.654.274-6.5-2 .552 3.883 2.5 7.5-.322 2.861-3 3.5-7.46.996-15 1v-36q44.003-.25 88 .5a524 524 0 0 1 1 45.5" style="opacity:1"/><path fill="#0f477e" d="M159.5 120.5h88v25a104.3 104.3 0 0 0-3.5 18l-1-10q-1.01 5.133-3.5 9.5-1.5 1-3 0a10.8 10.8 0 0 0-3-2.5 26.9 26.9 0 0 0-3.5 6q-1.669-3.138-.5-7h-4a171 171 0 0 0-1-15 51.6 51.6 0 0 1 1-7 187 187 0 0 0-12.5-3 86 86 0 0 0-7.5 1v3q-2.398-.401-4 1h-1q-3.357-4.87-4 0-1.083-.627-1.5-2a50.6 50.6 0 0 1-10.5 5q-1.712 2.881-.5 6 1.224-1.984 3.5-2a17 17 0 0 1-2 6.5q1.937 3.075 1.5 6.5-1.5 2-3 0a41 41 0 0 1-.5-9q-4.892-.6-2 3.5-.013 2.106-1.5 3.5a43 43 0 0 1-2-9l-2 6a23 23 0 0 0-2-5q-4.92 4.105-9-1-1.056 5.169-4 0a98.4 98.4 0 0 0-.5 14q-1.492 16.231-1 33a704 704 0 0 1 0-75" style="opacity:1"/><path fill="#375780" d="M224.5 144.5q-6.777-13.003-18.5-4-3.117 5.055-2.5 11-1.976-4.095 0-8.5l-3-1q1.129-1.006 1-2.5 1.602-1.401 4-1v-3a86 86 0 0 1 7.5-1q6.317 1.288 12.5 3a51.6 51.6 0 0 0-1 7" style="opacity:1"/><path fill="#fbf0f3" d="M303.5 158.5a46.2 46.2 0 0 0 13 9 485 485 0 0 1-44 1q-.166-.925-1-1.5-7.776-.261-15-1.5a226 226 0 0 0 30-1l-1-2a226 226 0 0 0-30-1q6.402-.553 12-3 2.243-.733 4-2 2.678-.639 3-3.5-1.948-3.617-2.5-7.5 2.846 2.274 6.5 2a48 48 0 0 0-1-5.5q.014-2.106 1.5-3.5.875 4.373 5 6 3.687-3.321 6-8a14.7 14.7 0 0 0 1.5 5 32 32 0 0 1 4.5-5q.724 1.422.5 3a28.3 28.3 0 0 0 10-3l1 1q-9.578 7.678-14 19 5.298-.285 10 2" style="opacity:1"/><path fill="#fefffe" d="M121.5 141.5q2 1 0 0" style="opacity:.004"/><path fill="#294671" d="M211.5 141.5q7.676-.829 8 7-1.167 8.816-9.5 5-2.308-6.254 1.5-12" style="opacity:1"/><path fill="#ab093b" d="M344.5 175.5q.135 3.978-2 7v-16h-3q.528-3.86-1.5-7a34.3 34.3 0 0 1-1.5 8q-2.433-2.908-5.5-1l-1-2q-.779 1.523-2.5 2-3.432-1.173-6 0-1.713 1.989-4 3 .258-1.487-1-2a46.2 46.2 0 0 1-13-9q-.332-1.853-2-3l1.5-1q6.808-3.411 17-4a116.8 116.8 0 0 1 24.5 4z" style="opacity:1"/><path fill="#fefffe" d="M359.5 156.5q2 1 0 0" style="opacity:.004"/><path fill="#1f3f6a" d="M200.5 139.5h1q.129 1.494-1 2.5l3 1q-1.976 4.405 0 8.5 1.28 5.28 6 8 3.672 1.46 8 1a23.1 23.1 0 0 1-2 8q-4.395 2.361-7.5-2a20.5 20.5 0 0 0-3.5 2.5q1.984 1.224 2 3.5-4.593-3.184-4.5-9-1.04-1.977-2.5-2.5 1.098-2.648 4-3.5-4.945-8.622-3-18" style="opacity:1"/><path fill="#698099" d="M196.5 140.5q1.739 16.738.5 34-3.572 1.402-7.5 1v-29q1.49 13.728 1 28 2.951.359 5.5-1 .75-16.493.5-33" style="opacity:.543"/><path fill="#567191" d="M159.5 120.5a1982 1982 0 0 1 89-1q.25 33.504-.5 67-2.073 3.815-5.5 6a50 50 0 0 0 3-7q2.972-19.437 2-40v-25z" style="opacity:.532"/><path fill="#a5283f" d="M255.5 161.5a226 226 0 0 1 30 1l1 2a226 226 0 0 1-30 1q-1.63-.18-2-2 .064-1.374 1-2" style="opacity:1"/><path fill="#c47584" d="M316.5 167.5q1.258.513 1 2h-62q.485 9.783-1 19v-20h18q22.265.494 44-1" style="opacity:1"/><path fill="#b70635" d="M342.5 182.5v4a620 620 0 0 1-13.5 32 101 101 0 0 1-7.5 9q2.143-4.212 2-9 5.452-.234 1-3.5 2.031-1.94 4-.5 1.817-3.511-1-6.5l3.5-5.5 5-2 1-8q1.334 2.083 1.5-.5-1.85-5.75 0-11.5 1.647 5.791 2.5 0 .747-4.975.5-10-6.588 3.027-14 3-5.868.76-10-3v-1q2.287-1.011 4-3 2.568-1.173 6 0 1.721-.477 2.5-2l1 2q3.067-1.908 5.5 1a34.3 34.3 0 0 0 1.5-8q2.028 3.14 1.5 7h3z" style="opacity:1"/><path fill="#bd062f" d="M314.5 170.5q.885 2.396 3 4-2.51 3.034-2 7a29.5 29.5 0 0 1-6.5-1 242 242 0 0 1-6-4q-1.545.504-1.5 2 .123 2.628-2.5 3a26 26 0 0 0-4.5-4 9.86 9.86 0 0 0-1 6 51.6 51.6 0 0 1-7-1q.13 3.265 2 6l-6 2a25.5 25.5 0 0 0 4 4.5 25.5 25.5 0 0 0-4 4.5l6 2-2 4 1.5 1a13 13 0 0 1 5.5-1v6q-.197 1.314 1 2 2.734-1.87 6-2-2.937 4.614-5 10-2.254.828-5 0 .16-3.604-3-5.5a41 41 0 0 0-13-1.5q.46-4.328-1-8-3.132-.548-7 0a8.4 8.4 0 0 0-.5-4 44 44 0 0 1-6.5.5 20.5 20.5 0 0 1-2.5 4.5 20.4 20.4 0 0 0-5.5-1.5 3.65 3.65 0 0 0 1-1.5 9.3 9.3 0 0 1-2-2.5q2.784-5.27 5.5-10.5.75-10.488.5-21z" style="opacity:1"/><path fill="#033167" d="M200.5 139.5q-1.945 9.378 3 18-2.902.852-4 3.5 1.46.523 2.5 2.5-.093 5.816 4.5 9 10.847 5.59 17-5 .925-.166 1.5-1 .743-2.96.5-6v-1h4q-1.169 3.862.5 7a26.9 26.9 0 0 1 3.5-6 10.8 10.8 0 0 1 3 2.5q1.5 1 3 0 2.49-4.367 3.5-9.5l1 10a104.3 104.3 0 0 1 3.5-18q.972 20.563-2 40-3.36-1.602-5.5-5-1.617 2.835-5 3a98 98 0 0 1-12-2q-4.173 3.756-8.5 0-5.48 1.76-11 0-7.838 3.916-15.5 0a84.4 84.4 0 0 0-13 4q-5.268-3.222-11-1-2.61-1.823-3-5a145 145 0 0 1-.5-17 98.4 98.4 0 0 1 .5-14q2.944 5.169 4 0 4.08 5.105 9 1a23 23 0 0 1 2 5l2-6a43 43 0 0 0 2 9q1.487-1.394 1.5-3.5-2.892-4.1 2-3.5a41 41 0 0 0 .5 9q1.5 2 3 0 .437-3.425-1.5-6.5a17 17 0 0 0 2-6.5h2v29q3.928.402 7.5-1 1.239-17.262-.5-34v-1q.643-4.87 4 0" style="opacity:1"/><path fill="#8192a9" d="M225.5 160.5a18.5 18.5 0 0 1-.5 6q-.575.834-1.5 1 .64-3.765 2-7" style="opacity:.353"/><path fill="#61768d" d="M215.5 168.5a23.1 23.1 0 0 0 2-8q-4.328.46-8-1 4.96.655 9-2 1.529 3.676 0 7.5-.322 2.861-3 3.5" style="opacity:.773"/><path fill="#c1042f" d="M314.5 170.5h3q4.132 3.76 10 3 7.412.027 14-3a50.5 50.5 0 0 1-.5 10q-.853 5.791-2.5 0-1.85 5.75 0 11.5-.166 2.583-1.5.5l-1 8-5 2-3.5 5.5q2.817 2.989 1 6.5-1.969-1.44-4 .5 4.452 3.266-1 3.5.143 4.788-2 9a45.4 45.4 0 0 0-8 8q-2.682-.428-5 1 2.09 1.78-.5 2-2.376-.732-3.5-3l-4 6q-.06-3.83-5-3a61.3 61.3 0 0 1 1-15 18.6 18.6 0 0 0 4-6q2.044 2.069 3-.5-3.955-3.662 2-4 2.305-1.665 2-4.5 1.983.255 3.5-1 .743-2.96.5-6h4v-6a8.4 8.4 0 0 0 4-.5q-1.31-3.848-4-8l2-1a6.8 6.8 0 0 1-3-1.5 5.58 5.58 0 0 0 1-3q-.51-3.966 2-7-2.115-1.604-3-4" style="opacity:1"/><path fill="#fefffe" d="M365.5 178.5q2 1 0 0M128.5 180.5q2 1 0 0" style="opacity:.004"/><path fill="#05265b" d="M160.5 162.5q-.249 8.514.5 17 .39 3.177 3 5 5.732-2.222 11 1a84.4 84.4 0 0 1 13-4q7.662 3.916 15.5 0 5.52 1.76 11 0 4.327 3.756 8.5 0a98 98 0 0 0 12 2q3.383-.165 5-3 2.14 3.398 5.5 5a50 50 0 0 1-3 7 81 81 0 0 1-3 2.5q-39.997.75-80 .5-.492-16.769 1-33" style="opacity:1"/><path fill="#fefffe" d="M70.5 182.5q2 1 0 0" style="opacity:.004"/><path fill="#fcf3f4" d="M301.5 178.5q1.494-.129 2.5 1a14.7 14.7 0 0 0 1.5 5q2.898-1.53 6-.5-2.042 2.376-2 5.5 3.096.28 6 1.5-7.373 3.385-1 8.5-2.318 1.428-5 1l1 6-6-1a10.1 10.1 0 0 1-1.5 6 22.8 22.8 0 0 0-4-5q-2.625 2.886-5.5 5v-6a13 13 0 0 0-5.5 1l-1.5-1 2-4-6-2a25.5 25.5 0 0 1 4-4.5 25.5 25.5 0 0 1-4-4.5l6-2q-1.87-2.735-2-6 3.459.74 7 1a9.86 9.86 0 0 1 1-6 26 26 0 0 1 4.5 4q2.623-.372 2.5-3" style="opacity:1"/><path fill="#fefffe" d="M-.5 186.5q2 1 0 0M42.5 198.5q2 1 0 0" style="opacity:.004"/><path fill="#031f67" d="M279.5 263.5a113.4 113.4 0 0 0 23-11.5l-2-1a14.7 14.7 0 0 0 3-3.5 76 76 0 0 1 8-6.5 114 114 0 0 1 8-9.5h3a73 73 0 0 0 4.5-8 4.46 4.46 0 0 0 1.5 2 36.2 36.2 0 0 0 2.5-8q.663 3.268 3 2 3.735-9.584 6-20 2.063 3.655 1.5 8h3q.25 32.504-.5 65-2.135 7.681-3 0-.617 3.745-3.5 6-9.749-2.465-19 1-7.668-2.41-13.5-8l-1.5 1.5q-13.041.872-26-1-1.823-2.61-5-3a8.4 8.4 0 0 1 4-.5q.332-3.245 3-5" style="opacity:1"/><path fill="#fefffe" d="M475.5 202.5q2 1 0 0" style="opacity:.004"/><path fill="#a42037" d="M317.5 169.5v1h-61q.25 10.512-.5 21a1685 1685 0 0 1-5.5 10.5 9.3 9.3 0 0 0 2 2.5 3.65 3.65 0 0 1-1 1.5q2.9.377 5.5 1.5a20.5 20.5 0 0 0 2.5-4.5 44 44 0 0 0 6.5-.5 8.4 8.4 0 0 1 .5 4q3.868-.548 7 0l-8 5q-2.495-2.99-3.5-7a12.6 12.6 0 0 0-2.5 4q-3.438 1.779-7 0-2 0-2 2v5q-5.268-.832-9 2-1.356-1.063-1-3h9a41 41 0 0 0-.5-9 6.3 6.3 0 0 0-3-1 87.4 87.4 0 0 0-13.5 6.5 8.4 8.4 0 0 1-4 .5q1.52-1.76 4-2a90 90 0 0 1 9-5q10.74-4.445 13-16 1.485-9.217 1-19z" style="opacity:1"/><path fill="#fefffe" d="M493.5 204.5q2 1 0 0" style="opacity:.004"/><path fill="#242b62" d="M241.5 204.5a90 90 0 0 0-9 5v-3q-12.51-.25-25 .5a7.3 7.3 0 0 0-3 2 26.3 26.3 0 0 1 6 4 12.5 12.5 0 0 1-7 0q-1.255-1.517-1-3.5-5.074.364-9.5-2a119 119 0 0 1-13.5 2 225 225 0 0 0-12.5-2 9.5 9.5 0 0 1-2.5 1.5q-1.208 6.015 0 12.5-2.863 4.062 1.5 8l1-1a22.14 22.14 0 0 0 9.5 3v-3a77 77 0 0 0 10-1q-.513 1.257-2 1-1 0-1 1-1.487-.257-2 1-1.487-.257-2 1a169 169 0 0 0-15 9q-2 0-2 2a5.73 5.73 0 0 1-3-1v-36a1682 1682 0 0 1 82-1" style="opacity:1"/><path fill="#051d5d" d="M232.5 209.5q-2.48.24-4 2-5.79-.261-9 4h-2a56.4 56.4 0 0 0-10 2.5q-.834.575-1 1.5a18.5 18.5 0 0 0-6 .5q-.834.575-1 1.5-3.433 2.831-8 4-2.82-.406-4 2h-1q-4.96.826-10 1v3a22.14 22.14 0 0 1-9.5-3l-1 1q-4.363-3.938-1.5-8-1.208-6.485 0-12.5a9.5 9.5 0 0 0 2.5-1.5q5.957.773 12.5 2a119 119 0 0 0 13.5-2q4.426 2.364 9.5 2-.255 1.983 1 3.5 3.5 1 7 0a26.3 26.3 0 0 0-6-4 7.3 7.3 0 0 1 3-2q12.49-.75 25-.5z" style="opacity:1"/><path fill="#ba6a76" d="M252.5 208.5q3.562 1.779 7 0-.192 2.385-2 4-2.879-1.668-5-4" style="opacity:.855"/><path fill="#fefffe" d="M471.5 210.5q2 1 0 0M28.5 211.5q2 1 0 0" style="opacity:.004"/><path fill="#771647" d="M228.5 211.5q-4.02 2.66-9 4 3.21-4.261 9-4" style="opacity:1"/><path fill="#d08998" d="M273.5 210.5v5q5.208-.51 8 1h-9q-.442-3.353 1-6" style="opacity:1"/><path fill="#b31a36" d="M315.5 181.5a5.58 5.58 0 0 1-1 3 6.8 6.8 0 0 0 3 1.5l-2 1q2.69 4.152 4 8a8.4 8.4 0 0 1-4 .5v6h-4a18.5 18.5 0 0 1-.5 6q-1.517 1.255-3.5 1 .305 2.835-2 4.5-5.955.338-2 4-.956 2.569-3 .5a18.6 18.6 0 0 1-4 6q-6.463 2.285-10-4a6.85 6.85 0 0 0-4-1q.278 5.358 4 9-.859 3.877-5 3 2.313-.962 4-3-4.545-1.765-8-5 1.45-3.435 4-6-2.792-1.51-8-1v-9q1.46 3.672 1 8a41 41 0 0 1 13 1.5q3.16 1.896 3 5.5 2.746.828 5 0 2.063-5.386 5-10-3.266.13-6 2-1.197-.686-1-2 2.875-2.114 5.5-5a22.8 22.8 0 0 1 4 5 10.1 10.1 0 0 0 1.5-6l6 1-1-6q2.682.428 5-1-6.373-5.115 1-8.5a20.1 20.1 0 0 0-6-1.5q-.042-3.124 2-5.5-3.102-1.03-6 .5a14.7 14.7 0 0 1-1.5-5q-1.006-1.129-2.5-1-.045-1.496 1.5-2a242 242 0 0 0 6 4q3.206.865 6.5 1" style="opacity:1"/><path fill="#ebc1c9" d="M250.5 210.5q1.426 2.128 1 5a247 247 0 0 1-7 2 6.85 6.85 0 0 1 1 4l-4-4q3.732-2.832 9-2z" style="opacity:1"/><path fill="#8c1338" d="M217.5 215.5q-2.66 2.088-6 3.5.699 1.949 0 4.5-3.442-.954-5-4 .166-.925 1-1.5a56.4 56.4 0 0 1 10-2.5" style="opacity:1"/><path fill="#363c57" d="M264.5 213.5q11.555 5.079 11 18-.375 3.261-3 5-1.5.5-2 2-1.92 2.147-5 2-18.069 1.18-16.5-17 1.518-4.053 4.5-7 4.69-3.832 11-3m-4 8q2.835 1.02 6 .5 3.82 9.69-6.5 11.5-4.831-6.032.5-12" style="opacity:1"/><path fill="#f0f3f7" d="M256.5 237.5q-8.065-4.664-5.5-14 8.988-14.74 21-2 4.962 20.786-15.5 16m4-16q-5.331 5.969-.5 12 10.32-1.81 6.5-11.5-3.165.52-6-.5" style="opacity:.776"/><path fill="#9ea4b0" d="M191.5 225.5q-1.52 1.76-4 2 1.18-2.406 4-2" style="opacity:.035"/><path fill="#f6e9f0" d="M273.5 206.5v4q-1.442 2.647-1 6h9q-2.55 2.565-4 6 3.455 3.235 8 5-1.687 2.038-4 3-2.48.24-4 2l-2-1q.555-12.921-11-18 3.297.137 1-2z" style="opacity:.999"/><path fill="#414243" d="M192.5 227.5q.958.895 1 2.5-1.334 6.424-4 .5 1.905-1.182 3-3" style="opacity:.694"/><path fill="#f4eaf1" d="m251.5 215.5 2 1q-2.982 2.947-4.5 7-1.569 18.18 16.5 17-4.946.585-9 3a6.55 6.55 0 0 1-3 3q-1.684-1.886-2 1-1.51-2.792-1-8-4.734 1.577-9 0 2.875-2.643 4-6.5a62 62 0 0 0-8-5 36.2 36.2 0 0 1 7-4q1.129-1.006 1-2.5a6.85 6.85 0 0 0-1-4 247 247 0 0 0 7-2" style="opacity:1"/><path fill="#45464a" d="M179.5 231.5q.513-1.257 2-1v12h-19q0-2 2-2 7.71 1.482 16 1 .469-5.313-1-10" style="opacity:.524"/><path fill="#8c8b8c" d="M224.5 241.5q-1.487 10.22-1 21-1.488-10.722-1-22 1.684-1.886 2 1" style="opacity:.175"/><path fill="#7e154c" d="M321.5 227.5q-.35 2.343-2 4a114 114 0 0 0-8 9.5 76 76 0 0 0-8 6.5 88 88 0 0 1 10-12 45.4 45.4 0 0 1 8-8" style="opacity:1"/><path fill="#fefffe" d="M99.5 244.5q2 1 0 0" style="opacity:.004"/><path fill="#9d0b2c" d="M211.5 223.5a429 429 0 0 0 19 15.5q2.042 2.376 2 5.5h4q-.378 4.23 1.5 8 1.517 1.255 3.5 1a298 298 0 0 0 5 14h-1a435 435 0 0 0-14.5-23 192 192 0 0 1-19.5-21" style="opacity:1"/><path fill="#5b5c61" d="M159.5 205.5v102h87a1937 1937 0 0 1-88 1q-.498-51.756 1-103" style="opacity:.273"/><path fill="#3e1853" d="M303.5 247.5a14.7 14.7 0 0 1-3 3.5l2 1a113.4 113.4 0 0 1-23 11.5 980 980 0 0 0 24-16" style="opacity:1"/><path fill="#bc062f" d="m241.5 217.5 4 4q.129 1.494-1 2.5a36.2 36.2 0 0 0-7 4 62 62 0 0 1 8 5q-1.125 3.857-4 6.5-.814.09-1 1a16.9 16.9 0 0 0 8 1q-.247 5.025.5 10a77 77 0 0 0 6.5-3q3.177 2.214 4.5 6 1.517-1.255 3.5-1v-4a54 54 0 0 1 4.5-1q3.175.987 5.5 2.5 1.416-4.078 1-8.5a21.1 21.1 0 0 0 9-1l1-2a31.6 31.6 0 0 1-4-5.5 14 14 0 0 0 1-3.5q4.141.877 5-3-3.722-3.642-4-9a6.85 6.85 0 0 1 4 1q3.537 6.285 10 4a61.3 61.3 0 0 0-1 15q4.94-.83 5 3l4-6q1.124 2.268 3.5 3 2.59-.22.5-2 2.318-1.428 5-1a88 88 0 0 0-10 12 980 980 0 0 1-24 16 8.4 8.4 0 0 0-4 .5q-4.978 4.059-11 5.5a93.4 93.4 0 0 1-17 2q.1-2.188-1-4a298 298 0 0 1-5-14q-1.983.255-3.5-1-1.878-3.77-1.5-8h-4q.042-3.124-2-5.5a429 429 0 0 1-19-15.5q.699-2.551 0-4.5 3.34-1.412 6-3.5h2q4.98-1.34 9-4a8.4 8.4 0 0 0 4-.5 87.4 87.4 0 0 1 13.5-6.5 6.3 6.3 0 0 1 3 1q.747 4.473.5 9h-9q-.356 1.937 1 3m12 29-2 1q.316-2.886 2-1m17-8q1.538.595.5 2-3.609 2.38-6.5 5-1.1 1.812-1 4-1.083.626-1.5 2-2.56-3.613-2.5-8h-3q4.054-2.415 9-3 3.08.147 5-2m5-7 2 1v2q-2.406 1.18-2 4-2.518.322-3-2 2.625-1.739 3-5m-15-10q-5.331 5.969-.5 12 10.32-1.81 6.5-11.5-3.165.52-6-.5" style="opacity:1"/><path fill="#aa273d" d="M241.5 239.5q4.266 1.577 9 0-.51 5.208 1 8l2-1a6.55 6.55 0 0 0 3-3h3q-.06 4.387 2.5 8 .417-1.374 1.5-2v4q-1.983-.255-3.5 1-1.323-3.786-4.5-6a77 77 0 0 1-6.5 3 50.5 50.5 0 0 1-.5-10 16.9 16.9 0 0 1-8-1q.186-.91 1-1m12 7-2 1q.316-2.886 2-1" style="opacity:1"/><path fill="#a3243c" d="M281.5 230.5a14 14 0 0 1-1 3.5 31.6 31.6 0 0 0 4 5.5l-1 2a21.1 21.1 0 0 1-9 1q.416 4.422-1 8.5-2.325-1.513-5.5-2.5a54 54 0 0 0-4.5 1q-.1-2.188 1-4 .975-.456 2-1a74 74 0 0 0 6.5 5 49.6 49.6 0 0 0-.5-10 41.7 41.7 0 0 0 9 1q-.276-4.255-4-6v-2q1.52-1.76 4-2" style="opacity:1"/><path fill="#f7dfe7" d="M277.5 234.5q3.724 1.745 4 6a41.7 41.7 0 0 1-9-1q.758 5.011.5 10a74 74 0 0 1-6.5-5q-1.025.544-2 1 2.891-2.62 6.5-5 1.038-1.405-.5-2 .5-1.5 2-2 .482 2.322 3 2-.406-2.82 2-4" style="opacity:.865"/><path fill="#9b9b9b" d="M198.5 244.5q1.063-1.356 3-1v18h-1q.925-9.147-2-17" style="opacity:.105"/><path fill="#5a5a5a" d="M177.5 244.5q1.602-1.401 4-1v18q-3.672 1.46-8 1h-5q5.697-1.475 12-1v-17z" style="opacity:.031"/><path fill="#121112" d="M222.5 240.5q-.488 11.278 1 22h16q-.985 1.224-4 2h-12q-1.475 5.697-1 12h19v-7l2 7a646 646 0 0 1-2 15q.477-6.798-1-13-8.715-1.485-18-1a61 61 0 0 1-11-.5q4.793-.271 9-1.5v-11h-11q-3.196-1.221-7-1.5-.834-.574-1-1.5v-18h2l17-2zm-19 4h17a86.8 86.8 0 0 1-1 18 97 97 0 0 0-16-1z" style="opacity:.77"/><path fill="#454545" d="M203.5 244.5v-1h18q.934 10.132-2 19a86.8 86.8 0 0 0 1-18z" style="opacity:.572"/><path fill="#081c5e" d="M253.5 273.5q5.842-1.443 11-4 6.022-1.441 11-5.5a8.4 8.4 0 0 1 4-.5q-2.668 1.755-3 5a8.4 8.4 0 0 0-4 .5q3.177.39 5 3a123.6 123.6 0 0 0 26 1l1.5-1.5q5.832 5.59 13.5 8 9.251-3.465 19-1 2.883-2.255 3.5-6 .865 7.681 3 0 .75-32.496.5-65h-3q.563-4.345-1.5-8-2.265 10.416-6 20-2.337 1.268-3-2a36.2 36.2 0 0 1-2.5 8 4.46 4.46 0 0 1-1.5-2 73 73 0 0 1-4.5 8h-3q1.65-1.657 2-4 3.954-4.215 7.5-9a620 620 0 0 0 13.5-32 44 44 0 0 0 2-3q1.5 51.49 1 103h-94a54.3 54.3 0 0 0-2-9q2.368-1.75 4-4" style="opacity:1"/><path fill="#7d113e" d="M245.5 267.5h1q1.1 1.812 1 4a93.4 93.4 0 0 0 17-2q-5.158 2.557-11 4h-6a31.7 31.7 0 0 1-2-6" style="opacity:1"/><path fill="#7b7b7b" d="M175.5 264.5q1.161-.97 3-1 2.295.21 3 2v11q-10.281.486-20-1h19v-11z" style="opacity:.17"/><path fill="#fefffe" d="M366.5 280.5q2 1 0 0" style="opacity:.004"/><path fill="#101a4b" d="M345.5 167.5q1 0 1 1 .073 59.399 0 119l-2 1q-10.78-.487-21 1h-2q-7.207-1.481-15-1-1.488-.258-2 1h-1q-7.207-1.481-15-1h-2q-8.29-.482-16 1h-2q-8.213-1.483-17-1-1.152-1.144-1.5-3a2.43 2.43 0 0 0-.5 2q-1.902-3.608-2-8v-6h6q-1.632 2.25-4 4a54.3 54.3 0 0 1 2 9h94q.5-51.51-1-103a44 44 0 0 1-2 3v-4q2.135-3.022 2-7 1.46-3.672 1-8" style="opacity:1"/><path fill="#9499ae" d="M251.5 289.5v-1q8.787-.483 17 1 .258 1.488-1 2-7.344-2.92-16-2" style="opacity:.051"/><path fill="#767676" d="M183.5 278.5v12h17v-12q1.477 6.202 1 13h-19q-.477-6.798 1-13m0 0h17v12h-17z" style="opacity:.232"/><path fill="#444445" d="M188.5 280.5h7v7a16.9 16.9 0 0 1-8-1 7.25 7.25 0 0 1 2-2.5q-3.34-1.056-1-3.5" style="opacity:.447"/><path fill="#121212" d="M183.5 229.5v13q9.285-.485 18 1-1.937-.356-3 1h-15l-2 17v-18q-2.398-.401-4 1h-16a114 114 0 0 1 1 18h11v2h-12v11q9.719 1.486 20 1v-11l2 11h16l-16 2q-1.477 6.202-1 13h4l-3 2q-1.477 6.202-1 13h19v-13l2 13h17v-14q1.487-.258 2 1v13h19q.426-2.872-1-5v-4l2-3v12q1.937.356 3-1 1.5.5 2 2h-88v-66q1.337.915 3 1h19v-12q.513-1.257 2-1m-22 49h19v12h-19zm19 15v12a96.3 96.3 0 0 1-19-1v-11zm23 0h16v12h-16zm-20 0h17v12h-17z" style="opacity:.896"/><path fill="#676767" d="M161.5 278.5q9.719-1.486 20-1v14q-10.281.486-20-1h19v-12z" style="opacity:.192"/><path fill="#525252" d="M166.5 280.5q4 2 8 0-.26 4.019-3 7a10.3 10.3 0 0 1-1.5-4 10.3 10.3 0 0 1-1.5 4 3.65 3.65 0 0 1-1.5-1 18.5 18.5 0 0 1-.5-6" style="opacity:.495"/><path fill="#464646" d="M170.5 265.5q4.561-.141 5 4.5-1.062 4.152-4.5 2.5a25 25 0 0 1-.5-7" style="opacity:.408"/><path fill="#666" d="M167.5 266.5q1.838.978 2 3.5l-1 3.5a13.1 13.1 0 0 1-1-7" style="opacity:.26"/><path fill="#514f50" d="M169.5 247.5h4v7q-6.857-.627-4-7" style="opacity:.78"/><path fill="#312f30" d="M206.5 219.5q1.558 3.046 5 4a192 192 0 0 0 19.5 21 435 435 0 0 1 14.5 23 31.7 31.7 0 0 0 2 6v6q-1.812-1.1-4-1v12h6v-3a2.43 2.43 0 0 1 .5-2q.348 1.856 1.5 3v14h16q-7.224 1.239-15 1.5 46.497.75 93 .5a4592 4592 0 0 1-96 1.5q-.816 1.075-2 1.5-.5-1.5-2-2 4.096-5.14 3-12h-5q-1 0-1 1l-2 3v-4h-18q-.513-1.258-2-1-8.787-.483-17 1v13l-2-13h-18l3-2h15q.477-6.798-1-13h-17l16-2q1.941-2.322 2-6-.007-3.294-1-6h-17v12l-2-11q-.705-1.79-3-2-1.839.03-3 1h-2v-2q4.328.46 8-1l2-17v17h18q.166.926 1 1.5 3.804.279 7 1.5h-6v11h17q-4.207 1.229-9 1.5 5.477.748 11 .5v14h19a646 646 0 0 0 2-15l-2-7q.426-2.872-1-5h-5q3.015-.776 4-2a94 94 0 0 0-7-11q-.517-4.047-4-6-2.5-1.5-4-4-.316-2.886-2-1l-2 1-17 2h-2q-8.715-1.485-18-1v-13q0-1 1-1v13h16q.486-10.281-1-20 .166-.925 1-1.5a18.5 18.5 0 0 1 6-.5m34 59v12h-17v-12zm-37 0h17v12h-17zm40-2a12.9 12.9 0 0 1 .5-5q2.412 3.293-.5 5m-20-12h17v11h-17zm-14 0h11v11h-17v-11zm-9 0v11h-17v-11zm3-20h17a86.8 86.8 0 0 1-1 18 97 97 0 0 0-16-1zm-20 0h15q2.925 7.853 2 17h-17zm30-8 2-5q4.889 3.778 5 10h-17q-.25-10.013.5-20a34.7 34.7 0 0 0 7.5 6.5 7.25 7.25 0 0 0-2 2.5q1.728 3.44 4 6m-10 57h16v12h-16zm20 0h17v12h-17zm20 0h5q1.096 6.86-3 12-2.884-5.293-2-12" style="opacity:.903"/><path fill="#737273" d="M222.5 277.5q9.285-.485 18 1 1.477 6.202 1 13h-19zm18 1h-17v12h17z" style="opacity:.196"/><path fill="#4d4d4e" d="M227.5 280.5q2.926-.41 4.5 2 .634-2.184 2.5-1.5 1.384 3.062 1 6.5a21.1 21.1 0 0 1-9-1 7.25 7.25 0 0 1 2-2.5q-1.255-1.517-1-3.5" style="opacity:.4"/><path fill="#2a2a2a" d="M213.5 281.5q2.712 2.127 2 6h-7q-.255-1.983 1-3.5-3.1-2.145 1.5-3.5 1.418.608 2 2 .598-.342.5-1" style="opacity:.306"/><path fill="#9b9b9b" d="M213.5 281.5q1.063-1.356 3-1 .452 3.839-1 7 .712-3.873-2-6" style="opacity:.078"/><path fill="#7b7b7d" d="M223.5 264.5v11h17v-11q1.426 2.128 1 5v7h-19q-.475-6.303 1-12m0 0h17v11h-17z" style="opacity:.145"/><path fill="#848485" d="M200.5 264.5q.993 2.706 1 6-.059 3.678-2 6h-16v-1h17z" style="opacity:.195"/><path fill="#444545" d="M228.5 266.5h3q-.603 13.797-3 0" style="opacity:.325"/><path fill="#444545" d="M233.5 265.5a7.5 7.5 0 0 1 3 2q-1.673 1.647 0 3.5-.798 3.03-4 2.5-.332-4.169 1-8" style="opacity:.506"/><path fill="#454545" d="M208.5 266.5q2.425 1.634 2.5 5 1.94-2.031.5-4 2.5-2 5 0l-2 3a4.46 4.46 0 0 0 2 1.5 39 39 0 0 0-7 1.5 13.1 13.1 0 0 1-1-7" style="opacity:.424"/><path fill="#575758" d="M188.5 266.5q3.126 1.122 6 0 1.712 2.881.5 6a35 35 0 0 1-4.5 1 34 34 0 0 1-2-7" style="opacity:.259"/><path fill="#5e5a5c" d="M228.5 245.5q3.483 1.953 4 6-1.356 1.063-1 3h-3q.681-4.66 0-9" style="opacity:.847"/><path fill="#5d5d5d" d="M209.5 247.5h5a18.5 18.5 0 0 1-.5 6q-2.034 1.32-4.5 1z" style="opacity:.216"/><path fill="#535353" d="M189.5 247.5q2.466-.32 4.5 1a240 240 0 0 1-.5 6h-4z" style="opacity:.263"/><path fill="#b5b5b5" d="m215.5 231.5-2 5a9.86 9.86 0 0 1 1-6q.91.186 1 1" style="opacity:.012"/><path fill="#fefffe" d="M53.5 292.5q2 1 0 0M455.5 292.5q2 1 0 0M477.5 292.5q2 1 0 0" style="opacity:.004"/><path fill="#4d4c4d" d="M257.5 290.5q2.788-.059 4 2.5.555 2.415-2 4.5a34 34 0 0 1-2-7" style="opacity:.212"/><path fill="#545454" d="M210.5 298.5q-3.388-.412-1-3 1.834-1.671 4-.5.896 2.833 1 5.5-3 2-6 0a31 31 0 0 0 2-2" style="opacity:.225"/><path fill="#474747" d="M232.5 294.5q2.909.77 3 4 .071 2.25-2 3a13.1 13.1 0 0 1-1-7" style="opacity:.525"/><path fill="#4d4d4d" d="M167.5 294.5q4.12-.47 8 1a4.46 4.46 0 0 1-2 1.5q2.674 1.6 1.5 4.5a62 62 0 0 1-7.5.5 47 47 0 0 1 0-7.5" style="opacity:.443"/><path fill="#565656" d="M227.5 295.5h4a18.5 18.5 0 0 1-.5 6q-2.52 1.655-4.5-1a6.8 6.8 0 0 1 3-1.5q-1.984-1.224-2-3.5" style="opacity:.431"/><path fill="#70737a" d="M270.5 289.5q7.71-1.482 16-1 .479 7.295-1 14v-13z" style="opacity:.273"/><path fill="#616161" d="M243.5 293.5q-.884 6.707 2 12-1.063 1.356-3 1v-12q0-1 1-1" style="opacity:.178"/><path fill="#181819" d="M346.5 287.5q.301 4.512 1 9-.101 4.407-2 8-46.503.25-93-.5 7.776-.261 15-1.5v-11q1.258-.512 1-2h2v13h15q1.479-6.705 1-14h2v14q7.71 1.482 16 1v-14q.512-1.258 2-1v14q7.207 1.481 15 1v-14h2v13q4.976.998 10.5 1 5.853-.018 10.5-2v-13zm-2 2v12a106.3 106.3 0 0 1-20 1v-13zm-38 0h14v13h-14zm-3 0v13h-14v-13zm-33 0h15v13h-15z" style="opacity:.915"/><path fill="#545256" d="M344.5 301.5q-4.647 1.982-10.5 2-5.524-.002-10.5-1h1q10.133.44 20-1" style="opacity:.096"/><path fill="#5e5e5f" d="M303.5 289.5h1v14q-8.29.482-16-1h15z" style="opacity:.157"/><path fill="#9f9fa9" d="M344.5 288.5v1h-20v13h-1v-13q10.22-1.487 21-1" style="opacity:.128"/><path fill="#b7bcc3" d="M288.5 288.5q7.793-.481 15 1h-14v13h-1z" style="opacity:.02"/><path fill="#7a7980" d="M306.5 289.5v-1q7.793-.481 15 1v14q-7.793.481-15-1h14v-13z" style="opacity:.046"/><path fill="#525351" d="M328.5 290.5h4q2.965 5.089-2 8-2.103-.548-3-2.5a13 13 0 0 0 1-5.5" style="opacity:.482"/><path fill="#404040" d="M312.5 290.5q1.838.978 2 3.5l-1 3.5a15.7 15.7 0 0 1-4-2 18.7 18.7 0 0 1 3-5" style="opacity:.639"/><path fill="#4b4b4c" d="M292.5 290.5h4a25 25 0 0 1-.5 7q-3.25 2.25-4.5-1.5a13 13 0 0 0 1-5.5" style="opacity:.506"/><path fill="#545555" d="M275.5 290.5q1.983-.255 3.5 1-.07 2.719.5 5-2.5 2-5 0 .454-3.043 1-6" style="opacity:.447"/><path fill="#737373" d="M180.5 293.5q1.477 6.202 1 13-10.625.939-20-2a96.3 96.3 0 0 0 19 1z" style="opacity:.09"/><path fill="#6c6c6d" d="M183.5 293.5v12h17v-12h1v13h-19q-.477-6.798 1-13m0 0h17v12h-17z" style="opacity:.075"/><path fill="#4b4b4b" d="M188.5 294.5h7q.804 4.747-2.5 8-2.439-.531-5.5 0-.305-2.835 2-4.5-3.34-1.056-1-3.5" style="opacity:.635"/><path fill="#686768" d="M203.5 293.5q8.213-1.483 17-1v14h-17v-1h16v-12z" style="opacity:.09"/><path fill="#6d6c70" d="M222.5 293.5h1v12h17v-4q1.426 2.128 1 5h-19z" style="opacity:.098"/><path fill="#fefffe" d="M38.5 314.5q2 1 0 0" style="opacity:.004"/><path fill="#111" d="M157.5 355.5q-.058 1.884 1.5 3 .75-17.993.5-36h8v55h-8a827 827 0 0 1-19.5-34 612 612 0 0 0-.5 35q-4.915.426-9.5-1-.75-27.995-.5-56 5.097-.48 10 1a14324 14324 0 0 1 18 33" style="opacity:.989"/><path fill="#060607" d="M202.5 321.5h8v9h-20v14h16v8q-8.787-.483-17 1v16h21q1.137 3.722 0 8h-30v-55q11.278.488 22-1" style="opacity:.979"/><path fill="#101010" d="M247.5 322.5q11.129 4.664 12 17-.931 13.912-14 18h-15v19q-1.521 1.897-4.5 2-2.56-.012-4.5-1v-55zm-16 8q21.175-3.102 14 16.5-6.576 3.312-14 2.5z" style="opacity:.977"/><path fill="#151515" d="M307.5 374.5v3h-9a83 83 0 0 1-4-11 60.7 60.7 0 0 0-19-.5 129 129 0 0 1-5 12q-5.3 1.355-10-1a1002 1002 0 0 1 16.5-47.5 34 34 0 0 0 1.5-8q6.4-.446 12.5 1a1574 1574 0 0 1 16.5 52m-24-38q1.314-.197 2 1a181 181 0 0 1 6 20 98.4 98.4 0 0 1-14-.5 85.8 85.8 0 0 0 6-20.5" style="opacity:.982"/><path fill="#181818" d="M316.5 321.5h10q.428 23.446 0 47h22v10a253 253 0 0 1-31.5-1q-.75-27.995-.5-56" style="opacity:.957"/><path fill="#161616" d="M357.5 321.5h10v57q-4.915.426-9.5-1-.75-27.995-.5-56" style="opacity:.973"/><path fill="#fefffe" d="M211.5 331.5q2 1 0 0M12.5 340.5q2 1 0 0M492.5 340.5q2 1 0 0M344.5 344.5q2 1 0 0" style="opacity:.004"/><path fill="#4c4c4d" d="M159.5 377.5h8v-55h-8q.25 18.007-.5 36-1.558-1.116-1.5-3 1.492-16.731 1-34h10v57q-4.82.465-9-1" style="opacity:.58"/><path fill="#454546" d="M202.5 321.5q-10.722 1.488-22 1v55h30q-15.23 1.491-31 1v-57z" style="opacity:.657"/><path fill="#404042" d="M247.5 322.5h-26v55a785 785 0 0 1-1-56q13.773-.49 27 1" style="opacity:.337"/><path fill="#535353" d="M206.5 344.5q1.465 4.18 1 9h-18q8.213-1.483 17-1z" style="opacity:.347"/><path fill="#fefffe" d="M195.5 365.5q2 1 0 0" style="opacity:.004"/><path fill="#767676" d="M245.5 357.5q-6.705 1.479-14 1 .485 9.285-1 18v-19z" style="opacity:.013"/><path fill="#919192" d="M189.5 353.5h1v15q10.281-.486 20 1h-21z" style="opacity:.2"/><path fill="#fefffe" d="M430.5 368.5q2 1 0 0M353.5 370.5q2 1 0 0" style="opacity:.004"/><path fill="#7c7c7c" d="M307.5 374.5q1.401 1.602 1 4-5.313.469-10-1h9z" style="opacity:.146"/><path fill="#fefffe" d="M310.5 385.5q2 1 0 0M133.5 386.5q2 1 0 0" style="opacity:.004"/><path fill="#6f6f70" d="M238.5 390.5q4.18-1.465 9-1v4h-5a71 71 0 0 1 4-2 16.9 16.9 0 0 0-8-1" style="opacity:.282"/><path fill="#fefffe" d="M481.5 389.5q2 1 0 0" style="opacity:.004"/><path fill="#6b6b6c" d="M223.5 390.5h-3v16q4.332.765 7-2 1.356 1.063 1 3h-9v-18q2.398-.401 4 1" style="opacity:.179"/><path fill="#111" d="M223.5 390.5v13q2.398-.401 4 1-2.668 2.765-7 2v-16z" style="opacity:.895"/><path fill="#1f1f1f" d="M238.5 390.5q4.12-.47 8 1a71 71 0 0 0-4 2v3a44 44 0 0 0 3 2 44 44 0 0 0-3 2v3h5v4h-10q-.483-8.787 1-17" style="opacity:.85"/><path fill="#151516" d="M261.5 391.5q3.603 14.116 3-1h3v17q-1.46 1.937-3 0a91 91 0 0 0-3.5-7q.144 2.821-.5 5-.975.456-2 1a65 65 0 0 1-1-16q2.188-.1 4 1" style="opacity:.9"/><path fill="#202020" d="M330.5 390.5q1.875.116 2.5 2 1.197 4.817-1.5 9 1.87 2.735 2 6-5.481-.376-6.5-6a18.5 18.5 0 0 0-.5 6h-3v-17zm-4 3h3q.417 2.77-2 4-1.393-1.783-1-4" style="opacity:.919"/><path fill="#9a9a9a" d="M264.5 390.5q.603 15.116-3 1 1.083.626 1.5 2 .348-1.856 1.5-3" style="opacity:.014"/><path fill="#7c7c7c" d="M264.5 390.5q1.602-1.401 4-1 .485 9.285-1 18v-17z" style="opacity:.177"/><path fill="#656565" d="M330.5 390.5h-7v14q-1.481-7.207-1-15 4.328-.46 8 1" style="opacity:.088"/><path fill="#272727" d="M285.5 390.5q4.032.786 4.5 5 2.127 13.621-11.5 12v-18q3.839-.452 7 1m-3 3q2.867.111 3.5 3 .735 3.067-.5 6-.926.166-1.5 1-.286-3.312-1.5-6z" style="opacity:.969"/><path fill="#050505" d="M285.5 390.5a10.2 10.2 0 0 1-3 3v11h3q-2.127 2.712-6 2v-16z" style="opacity:.902"/><path fill="#1e1e1e" d="M303.5 389.5q2.466-.32 4.5 1a143 143 0 0 1 4.5 16q-4.146 2.149-6.5-2-2.21 3.624-6.5 3z" style="opacity:.918"/><path fill="#8c8c8f" d="M242.5 396.5h4v4h-4a44 44 0 0 1 3-2 44 44 0 0 1-3-2" style="opacity:.071"/><path fill="#787878" d="M128.5 399.5q18.24-1.74 37-.5 1.6 1.738-1 2.5-17.43-2.969-36-2" style="opacity:.024"/><path fill="#9c9c9c" d="M282.5 397.5q1.214 2.688 1.5 6 .574-.834 1.5-1v2h-3z" style="opacity:.008"/><path fill="#888" d="M376.5 399.5q-18.072-.967-35 2-1.356-1.063-1-3 18.267-.492 36 1" style="opacity:.024"/><path fill="#202021" d="M201.5 389.5q2.466-.32 4.5 1a142 142 0 0 0 4.5 16l-2 1q-2.891-2.69-7-3v3h-5a221 221 0 0 1 5-18" style="opacity:.859"/><path fill="#232324" d="M128.5 399.5q18.57-.969 36 2-18.57.969-36-2" style="opacity:.373"/><path fill="#7d7d7d" d="M261.5 391.5q-1.812-1.1-4-1a65 65 0 0 0 1 16q1.025-.544 2-1-1.025 2.514-4 2v-18q3.422-.634 5 2" style="opacity:.075"/><path fill="#272727" d="M376.5 399.5q2.818-.16 1 1.5-17.993.75-36 .5 16.928-2.967 35-2" style="opacity:.381"/><path fill="#232324" d="M179.5 389.5q3.438-.384 6.5 1l2.5 5q-2.318 1.428-5 1v-3h-3v10a27.2 27.2 0 0 0 5.5-2l2.5 1q-3.165 8.226-10.5 4-5.468-9.24 1.5-17" style="opacity:.823"/><path fill="#fefffe" d="M115.5 406.5q2 1 0 0M167.5 414.5q2 1 0 0M443.5 422.5q2 1 0 0M48.5 428.5q2 1 0 0M468.5 430.5q2 1 0 0M426.5 434.5q2 1 0 0M360.5 437.5q2 1 0 0M176.5 438.5q2 1 0 0M25.5 444.5q2 1 0 0M359.5 446.5q2 1 0 0M307.5 452.5q2 1 0 0M73.5 464.5q2 1 0 0M294.5 467.5q2 1 0 0M326.5 470.5q2 1 0 0M229.5 473.5q2 1 0 0M381.5 474.5q2 1 0 0M226.5 478.5q2 1 0 0M392.5 480.5q2 1 0 0M140.5 489.5q2 1 0 0" style="opacity:.004"/></svg>